<mxfile host="app.diagrams.net" modified="2024-03-13T15:09:36.177Z" agent="Mozilla/5.0 (Windows NT 10.0; Win64; x64; rv:123.0) Gecko/20100101 Firefox/123.0" etag="IzUWy82NI7vSd9FD8iyZ" version="24.0.5" type="github" pages="2">
  <diagram id="C5RBs43oDa-KdzZeNtuy" name="Page-1">
    <mxGraphModel dx="1807" dy="641" grid="1" gridSize="10" guides="1" tooltips="1" connect="1" arrows="1" fold="1" page="1" pageScale="1" pageWidth="827" pageHeight="1169" math="0" shadow="0">
      <root>
        <mxCell id="WIyWlLk6GJQsqaUBKTNV-0" />
        <mxCell id="WIyWlLk6GJQsqaUBKTNV-1" parent="WIyWlLk6GJQsqaUBKTNV-0" />
        <mxCell id="PS7bGyd3I63wS1pFntd5-0" value="«interface»&lt;br&gt;&lt;span style=&quot;font-weight: 700;&quot;&gt;ISignalRManager&lt;/span&gt;" style="html=1;whiteSpace=wrap;" parent="WIyWlLk6GJQsqaUBKTNV-1" vertex="1">
          <mxGeometry x="50" y="146" width="110" height="50" as="geometry" />
        </mxCell>
        <mxCell id="PS7bGyd3I63wS1pFntd5-1" value="SignalRManager" style="swimlane;fontStyle=1;align=center;verticalAlign=top;childLayout=stackLayout;horizontal=1;startSize=26;horizontalStack=0;resizeParent=1;resizeParentMax=0;resizeLast=0;collapsible=1;marginBottom=0;whiteSpace=wrap;html=1;" parent="WIyWlLk6GJQsqaUBKTNV-1" vertex="1">
          <mxGeometry x="290" y="132" width="160" height="86" as="geometry" />
        </mxCell>
        <mxCell id="PS7bGyd3I63wS1pFntd5-2" value="+ field: type" style="text;strokeColor=none;fillColor=none;align=left;verticalAlign=top;spacingLeft=4;spacingRight=4;overflow=hidden;rotatable=0;points=[[0,0.5],[1,0.5]];portConstraint=eastwest;whiteSpace=wrap;html=1;" parent="PS7bGyd3I63wS1pFntd5-1" vertex="1">
          <mxGeometry y="26" width="160" height="26" as="geometry" />
        </mxCell>
        <mxCell id="PS7bGyd3I63wS1pFntd5-3" value="" style="line;strokeWidth=1;fillColor=none;align=left;verticalAlign=middle;spacingTop=-1;spacingLeft=3;spacingRight=3;rotatable=0;labelPosition=right;points=[];portConstraint=eastwest;strokeColor=inherit;" parent="PS7bGyd3I63wS1pFntd5-1" vertex="1">
          <mxGeometry y="52" width="160" height="8" as="geometry" />
        </mxCell>
        <mxCell id="PS7bGyd3I63wS1pFntd5-4" value="+ method(type): type" style="text;strokeColor=none;fillColor=none;align=left;verticalAlign=top;spacingLeft=4;spacingRight=4;overflow=hidden;rotatable=0;points=[[0,0.5],[1,0.5]];portConstraint=eastwest;whiteSpace=wrap;html=1;" parent="PS7bGyd3I63wS1pFntd5-1" vertex="1">
          <mxGeometry y="60" width="160" height="26" as="geometry" />
        </mxCell>
        <mxCell id="PS7bGyd3I63wS1pFntd5-6" value="SignalRLiveView" style="swimlane;fontStyle=1;align=center;verticalAlign=top;childLayout=stackLayout;horizontal=1;startSize=26;horizontalStack=0;resizeParent=1;resizeParentMax=0;resizeLast=0;collapsible=1;marginBottom=0;whiteSpace=wrap;html=1;" parent="WIyWlLk6GJQsqaUBKTNV-1" vertex="1">
          <mxGeometry x="560" y="132" width="160" height="86" as="geometry" />
        </mxCell>
        <mxCell id="PS7bGyd3I63wS1pFntd5-7" value="+ field: type" style="text;strokeColor=none;fillColor=none;align=left;verticalAlign=top;spacingLeft=4;spacingRight=4;overflow=hidden;rotatable=0;points=[[0,0.5],[1,0.5]];portConstraint=eastwest;whiteSpace=wrap;html=1;" parent="PS7bGyd3I63wS1pFntd5-6" vertex="1">
          <mxGeometry y="26" width="160" height="26" as="geometry" />
        </mxCell>
        <mxCell id="PS7bGyd3I63wS1pFntd5-8" value="" style="line;strokeWidth=1;fillColor=none;align=left;verticalAlign=middle;spacingTop=-1;spacingLeft=3;spacingRight=3;rotatable=0;labelPosition=right;points=[];portConstraint=eastwest;strokeColor=inherit;" parent="PS7bGyd3I63wS1pFntd5-6" vertex="1">
          <mxGeometry y="52" width="160" height="8" as="geometry" />
        </mxCell>
        <mxCell id="PS7bGyd3I63wS1pFntd5-9" value="+ method(type): type" style="text;strokeColor=none;fillColor=none;align=left;verticalAlign=top;spacingLeft=4;spacingRight=4;overflow=hidden;rotatable=0;points=[[0,0.5],[1,0.5]];portConstraint=eastwest;whiteSpace=wrap;html=1;" parent="PS7bGyd3I63wS1pFntd5-6" vertex="1">
          <mxGeometry y="60" width="160" height="26" as="geometry" />
        </mxCell>
        <mxCell id="PS7bGyd3I63wS1pFntd5-10" value="&lt;div&gt;&lt;br&gt;&lt;/div&gt;&lt;div&gt;&lt;br&gt;&lt;/div&gt;" style="endArrow=block;endSize=16;endFill=0;html=1;rounded=0;entryX=1;entryY=0.5;entryDx=0;entryDy=0;exitX=0;exitY=0.5;exitDx=0;exitDy=0;" parent="WIyWlLk6GJQsqaUBKTNV-1" source="PS7bGyd3I63wS1pFntd5-2" target="PS7bGyd3I63wS1pFntd5-0" edge="1">
          <mxGeometry width="160" relative="1" as="geometry">
            <mxPoint x="430" y="390" as="sourcePoint" />
            <mxPoint x="590" y="390" as="targetPoint" />
          </mxGeometry>
        </mxCell>
        <mxCell id="PS7bGyd3I63wS1pFntd5-11" value="&lt;div&gt;&lt;br&gt;&lt;/div&gt;&lt;div&gt;&lt;br&gt;&lt;/div&gt;" style="endArrow=block;endSize=16;endFill=0;html=1;rounded=0;entryX=1;entryY=0.5;entryDx=0;entryDy=0;exitX=0;exitY=0.5;exitDx=0;exitDy=0;" parent="WIyWlLk6GJQsqaUBKTNV-1" source="PS7bGyd3I63wS1pFntd5-7" target="PS7bGyd3I63wS1pFntd5-2" edge="1">
          <mxGeometry width="160" relative="1" as="geometry">
            <mxPoint x="580" y="300" as="sourcePoint" />
            <mxPoint x="450" y="286" as="targetPoint" />
          </mxGeometry>
        </mxCell>
        <mxCell id="PS7bGyd3I63wS1pFntd5-12" value="«interface»&lt;br&gt;&lt;span style=&quot;font-weight: 700;&quot;&gt;ISignalRLiveView&lt;/span&gt;" style="html=1;whiteSpace=wrap;" parent="WIyWlLk6GJQsqaUBKTNV-1" vertex="1">
          <mxGeometry x="340" y="30" width="110" height="50" as="geometry" />
        </mxCell>
        <mxCell id="PS7bGyd3I63wS1pFntd5-13" value="&lt;div&gt;&lt;br&gt;&lt;/div&gt;&lt;div&gt;&lt;br&gt;&lt;/div&gt;" style="endArrow=block;endSize=16;endFill=0;html=1;rounded=0;entryX=1;entryY=0.5;entryDx=0;entryDy=0;exitX=-0.017;exitY=0.167;exitDx=0;exitDy=0;exitPerimeter=0;" parent="WIyWlLk6GJQsqaUBKTNV-1" source="PS7bGyd3I63wS1pFntd5-7" target="PS7bGyd3I63wS1pFntd5-12" edge="1">
          <mxGeometry width="160" relative="1" as="geometry">
            <mxPoint x="570" y="181" as="sourcePoint" />
            <mxPoint x="460" y="181" as="targetPoint" />
          </mxGeometry>
        </mxCell>
        <mxCell id="PS7bGyd3I63wS1pFntd5-14" value="SignalRMeasurements" style="swimlane;fontStyle=1;align=center;verticalAlign=top;childLayout=stackLayout;horizontal=1;startSize=26;horizontalStack=0;resizeParent=1;resizeParentMax=0;resizeLast=0;collapsible=1;marginBottom=0;whiteSpace=wrap;html=1;" parent="WIyWlLk6GJQsqaUBKTNV-1" vertex="1">
          <mxGeometry x="560" y="320" width="200" height="86" as="geometry" />
        </mxCell>
        <mxCell id="PS7bGyd3I63wS1pFntd5-15" value="+ field: type" style="text;strokeColor=none;fillColor=none;align=left;verticalAlign=top;spacingLeft=4;spacingRight=4;overflow=hidden;rotatable=0;points=[[0,0.5],[1,0.5]];portConstraint=eastwest;whiteSpace=wrap;html=1;" parent="PS7bGyd3I63wS1pFntd5-14" vertex="1">
          <mxGeometry y="26" width="200" height="26" as="geometry" />
        </mxCell>
        <mxCell id="PS7bGyd3I63wS1pFntd5-16" value="" style="line;strokeWidth=1;fillColor=none;align=left;verticalAlign=middle;spacingTop=-1;spacingLeft=3;spacingRight=3;rotatable=0;labelPosition=right;points=[];portConstraint=eastwest;strokeColor=inherit;" parent="PS7bGyd3I63wS1pFntd5-14" vertex="1">
          <mxGeometry y="52" width="200" height="8" as="geometry" />
        </mxCell>
        <mxCell id="PS7bGyd3I63wS1pFntd5-17" value="+ method(type): type" style="text;strokeColor=none;fillColor=none;align=left;verticalAlign=top;spacingLeft=4;spacingRight=4;overflow=hidden;rotatable=0;points=[[0,0.5],[1,0.5]];portConstraint=eastwest;whiteSpace=wrap;html=1;" parent="PS7bGyd3I63wS1pFntd5-14" vertex="1">
          <mxGeometry y="60" width="200" height="26" as="geometry" />
        </mxCell>
        <mxCell id="PS7bGyd3I63wS1pFntd5-18" value="&lt;div&gt;&lt;br&gt;&lt;/div&gt;&lt;div&gt;&lt;br&gt;&lt;/div&gt;" style="endArrow=block;endSize=16;endFill=0;html=1;rounded=0;entryX=1;entryY=0.5;entryDx=0;entryDy=0;exitX=0;exitY=0.5;exitDx=0;exitDy=0;" parent="WIyWlLk6GJQsqaUBKTNV-1" source="PS7bGyd3I63wS1pFntd5-15" edge="1">
          <mxGeometry width="160" relative="1" as="geometry">
            <mxPoint x="557" y="287" as="sourcePoint" />
            <mxPoint x="450" y="180" as="targetPoint" />
          </mxGeometry>
        </mxCell>
        <mxCell id="PS7bGyd3I63wS1pFntd5-19" value="«interface»&lt;br&gt;&lt;span style=&quot;font-weight: 700;&quot;&gt;I&lt;/span&gt;&lt;span style=&quot;font-weight: 700;&quot;&gt;SignalRMeasurements&lt;/span&gt;" style="html=1;whiteSpace=wrap;" parent="WIyWlLk6GJQsqaUBKTNV-1" vertex="1">
          <mxGeometry x="291" y="260" width="159" height="50" as="geometry" />
        </mxCell>
        <mxCell id="PS7bGyd3I63wS1pFntd5-21" value="&lt;div&gt;&lt;br&gt;&lt;/div&gt;&lt;div&gt;&lt;br&gt;&lt;/div&gt;" style="endArrow=block;endSize=16;endFill=0;html=1;rounded=0;entryX=1;entryY=0.5;entryDx=0;entryDy=0;exitX=0;exitY=0.5;exitDx=0;exitDy=0;" parent="WIyWlLk6GJQsqaUBKTNV-1" source="PS7bGyd3I63wS1pFntd5-15" edge="1">
          <mxGeometry width="160" relative="1" as="geometry">
            <mxPoint x="578" y="387" as="sourcePoint" />
            <mxPoint x="471" y="280" as="targetPoint" />
          </mxGeometry>
        </mxCell>
      </root>
    </mxGraphModel>
  </diagram>
  <diagram id="rVHDvLefInhheSHS1rZb" name="Page-2">
    <mxGraphModel dx="1033" dy="366" grid="1" gridSize="10" guides="1" tooltips="1" connect="1" arrows="1" fold="1" page="1" pageScale="1" pageWidth="850" pageHeight="1100" math="0" shadow="0">
      <root>
        <mxCell id="0" />
        <mxCell id="1" parent="0" />
        <mxCell id="8lCzz3-D9B8oFlvmAZ8F-3" value="MCU" style="shape=umlLifeline;perimeter=lifelinePerimeter;whiteSpace=wrap;html=1;container=1;dropTarget=0;collapsible=0;recursiveResize=0;outlineConnect=0;portConstraint=eastwest;newEdgeStyle={&quot;curved&quot;:0,&quot;rounded&quot;:0};" parent="1" vertex="1">
          <mxGeometry x="40" y="40" width="100" height="950" as="geometry" />
        </mxCell>
        <mxCell id="8lCzz3-D9B8oFlvmAZ8F-5" value="" style="html=1;points=[[0,0,0,0,5],[0,1,0,0,-5],[1,0,0,0,5],[1,1,0,0,-5]];perimeter=orthogonalPerimeter;outlineConnect=0;targetShapes=umlLifeline;portConstraint=eastwest;newEdgeStyle={&quot;curved&quot;:0,&quot;rounded&quot;:0};" parent="8lCzz3-D9B8oFlvmAZ8F-3" vertex="1">
          <mxGeometry x="45" y="70" width="10" height="50" as="geometry" />
        </mxCell>
        <mxCell id="8lCzz3-D9B8oFlvmAZ8F-17" value="" style="html=1;points=[[0,0,0,0,5],[0,1,0,0,-5],[1,0,0,0,5],[1,1,0,0,-5]];perimeter=orthogonalPerimeter;outlineConnect=0;targetShapes=umlLifeline;portConstraint=eastwest;newEdgeStyle={&quot;curved&quot;:0,&quot;rounded&quot;:0};" parent="8lCzz3-D9B8oFlvmAZ8F-3" vertex="1">
          <mxGeometry x="45" y="130" width="10" height="190" as="geometry" />
        </mxCell>
        <mxCell id="8lCzz3-D9B8oFlvmAZ8F-6" value="DBSaveHandler" style="shape=umlLifeline;perimeter=lifelinePerimeter;whiteSpace=wrap;html=1;container=1;dropTarget=0;collapsible=0;recursiveResize=0;outlineConnect=0;portConstraint=eastwest;newEdgeStyle={&quot;curved&quot;:0,&quot;rounded&quot;:0};" parent="1" vertex="1">
          <mxGeometry x="350" y="40" width="100" height="950" as="geometry" />
        </mxCell>
        <mxCell id="8lCzz3-D9B8oFlvmAZ8F-11" value="" style="html=1;points=[[0,0,0,0,5],[0,1,0,0,-5],[1,0,0,0,5],[1,1,0,0,-5]];perimeter=orthogonalPerimeter;outlineConnect=0;targetShapes=umlLifeline;portConstraint=eastwest;newEdgeStyle={&quot;curved&quot;:0,&quot;rounded&quot;:0};" parent="8lCzz3-D9B8oFlvmAZ8F-6" vertex="1">
          <mxGeometry x="45" y="70" width="10" height="50" as="geometry" />
        </mxCell>
        <mxCell id="8lCzz3-D9B8oFlvmAZ8F-18" value="" style="html=1;points=[[0,0,0,0,5],[0,1,0,0,-5],[1,0,0,0,5],[1,1,0,0,-5]];perimeter=orthogonalPerimeter;outlineConnect=0;targetShapes=umlLifeline;portConstraint=eastwest;newEdgeStyle={&quot;curved&quot;:0,&quot;rounded&quot;:0};" parent="8lCzz3-D9B8oFlvmAZ8F-6" vertex="1">
          <mxGeometry x="45" y="130" width="10" height="190" as="geometry" />
        </mxCell>
        <mxCell id="8lCzz3-D9B8oFlvmAZ8F-7" value="SignalRHandler" style="shape=umlLifeline;perimeter=lifelinePerimeter;whiteSpace=wrap;html=1;container=1;dropTarget=0;collapsible=0;recursiveResize=0;outlineConnect=0;portConstraint=eastwest;newEdgeStyle={&quot;curved&quot;:0,&quot;rounded&quot;:0};" parent="1" vertex="1">
          <mxGeometry x="500" y="40" width="100" height="950" as="geometry" />
        </mxCell>
        <mxCell id="8lCzz3-D9B8oFlvmAZ8F-8" value="DB" style="shape=umlLifeline;perimeter=lifelinePerimeter;whiteSpace=wrap;html=1;container=1;dropTarget=0;collapsible=0;recursiveResize=0;outlineConnect=0;portConstraint=eastwest;newEdgeStyle={&quot;curved&quot;:0,&quot;rounded&quot;:0};" parent="1" vertex="1">
          <mxGeometry x="680" y="40" width="100" height="950" as="geometry" />
        </mxCell>
        <mxCell id="8lCzz3-D9B8oFlvmAZ8F-16" value="" style="html=1;points=[[0,0,0,0,5],[0,1,0,0,-5],[1,0,0,0,5],[1,1,0,0,-5]];perimeter=orthogonalPerimeter;outlineConnect=0;targetShapes=umlLifeline;portConstraint=eastwest;newEdgeStyle={&quot;curved&quot;:0,&quot;rounded&quot;:0};" parent="8lCzz3-D9B8oFlvmAZ8F-8" vertex="1">
          <mxGeometry x="45" y="70" width="10" height="50" as="geometry" />
        </mxCell>
        <mxCell id="8lCzz3-D9B8oFlvmAZ8F-19" value="" style="html=1;points=[[0,0,0,0,5],[0,1,0,0,-5],[1,0,0,0,5],[1,1,0,0,-5]];perimeter=orthogonalPerimeter;outlineConnect=0;targetShapes=umlLifeline;portConstraint=eastwest;newEdgeStyle={&quot;curved&quot;:0,&quot;rounded&quot;:0};" parent="8lCzz3-D9B8oFlvmAZ8F-8" vertex="1">
          <mxGeometry x="45" y="130" width="10" height="190" as="geometry" />
        </mxCell>
        <mxCell id="8lCzz3-D9B8oFlvmAZ8F-9" value="Save cycle status" style="html=1;verticalAlign=bottom;endArrow=block;curved=0;rounded=0;entryX=0;entryY=0;entryDx=0;entryDy=5;entryPerimeter=0;exitX=1;exitY=0.1;exitDx=0;exitDy=0;exitPerimeter=0;" parent="1" source="8lCzz3-D9B8oFlvmAZ8F-11" target="8lCzz3-D9B8oFlvmAZ8F-16" edge="1">
          <mxGeometry x="0.0003" width="80" relative="1" as="geometry">
            <mxPoint x="345" y="120" as="sourcePoint" />
            <mxPoint x="730" y="120" as="targetPoint" />
            <mxPoint as="offset" />
          </mxGeometry>
        </mxCell>
        <mxCell id="8lCzz3-D9B8oFlvmAZ8F-10" value="Sending data points and timestamps" style="html=1;verticalAlign=bottom;endArrow=block;curved=0;rounded=0;exitX=1;exitY=0;exitDx=0;exitDy=5;exitPerimeter=0;entryX=0;entryY=0;entryDx=0;entryDy=5;entryPerimeter=0;" parent="1" source="8lCzz3-D9B8oFlvmAZ8F-17" target="8lCzz3-D9B8oFlvmAZ8F-18" edge="1">
          <mxGeometry x="0.0003" width="80" relative="1" as="geometry">
            <mxPoint x="100" y="180" as="sourcePoint" />
            <mxPoint x="345" y="180" as="targetPoint" />
            <mxPoint as="offset" />
          </mxGeometry>
        </mxCell>
        <mxCell id="8lCzz3-D9B8oFlvmAZ8F-15" value="Cycle Initialize" style="html=1;verticalAlign=bottom;endArrow=block;curved=0;rounded=0;exitX=1;exitY=0;exitDx=0;exitDy=5;exitPerimeter=0;entryX=0;entryY=0;entryDx=0;entryDy=5;entryPerimeter=0;" parent="1" source="8lCzz3-D9B8oFlvmAZ8F-5" target="8lCzz3-D9B8oFlvmAZ8F-11" edge="1">
          <mxGeometry width="80" relative="1" as="geometry">
            <mxPoint x="90" y="120" as="sourcePoint" />
            <mxPoint x="330" y="115" as="targetPoint" />
          </mxGeometry>
        </mxCell>
        <mxCell id="8lCzz3-D9B8oFlvmAZ8F-20" value="Saving data points and timestamps" style="html=1;verticalAlign=bottom;endArrow=block;curved=0;rounded=0;exitX=1;exitY=0;exitDx=0;exitDy=5;exitPerimeter=0;" parent="1" edge="1">
          <mxGeometry width="80" relative="1" as="geometry">
            <mxPoint x="350" y="175.00000000000006" as="sourcePoint" />
            <mxPoint x="725" y="175" as="targetPoint" />
            <mxPoint as="offset" />
          </mxGeometry>
        </mxCell>
        <mxCell id="UeGfUdH54rh__YunfXHJ-1" value="Graph" style="shape=umlLifeline;perimeter=lifelinePerimeter;whiteSpace=wrap;html=1;container=1;dropTarget=0;collapsible=0;recursiveResize=0;outlineConnect=0;portConstraint=eastwest;newEdgeStyle={&quot;curved&quot;:0,&quot;rounded&quot;:0};" vertex="1" parent="1">
          <mxGeometry x="200" y="40" width="100" height="950" as="geometry" />
        </mxCell>
        <mxCell id="UeGfUdH54rh__YunfXHJ-4" value="" style="html=1;points=[[0,0,0,0,5],[0,1,0,0,-5],[1,0,0,0,5],[1,1,0,0,-5]];perimeter=orthogonalPerimeter;outlineConnect=0;targetShapes=umlLifeline;portConstraint=eastwest;newEdgeStyle={&quot;curved&quot;:0,&quot;rounded&quot;:0};" vertex="1" parent="UeGfUdH54rh__YunfXHJ-1">
          <mxGeometry x="45" y="240" width="10" height="190" as="geometry" />
        </mxCell>
        <mxCell id="UeGfUdH54rh__YunfXHJ-5" value="Get Points" style="html=1;verticalAlign=bottom;endArrow=block;curved=0;rounded=0;exitX=1;exitY=0;exitDx=0;exitDy=5;exitPerimeter=0;" edge="1" parent="1" source="UeGfUdH54rh__YunfXHJ-4" target="8lCzz3-D9B8oFlvmAZ8F-8">
          <mxGeometry width="80" relative="1" as="geometry">
            <mxPoint x="360" y="185.00000000000006" as="sourcePoint" />
            <mxPoint x="735" y="185" as="targetPoint" />
            <mxPoint as="offset" />
          </mxGeometry>
        </mxCell>
        <mxCell id="UeGfUdH54rh__YunfXHJ-8" value="Points" style="html=1;verticalAlign=bottom;endArrow=open;dashed=1;endSize=8;curved=0;rounded=0;entryX=1.1;entryY=0.212;entryDx=0;entryDy=0;entryPerimeter=0;" edge="1" parent="1" source="8lCzz3-D9B8oFlvmAZ8F-19" target="UeGfUdH54rh__YunfXHJ-4">
          <mxGeometry relative="1" as="geometry">
            <mxPoint x="730" y="320" as="sourcePoint" />
            <mxPoint x="260" y="320" as="targetPoint" />
          </mxGeometry>
        </mxCell>
      </root>
    </mxGraphModel>
  </diagram>
</mxfile>
